<svg width="37" height="37" viewBox="0 0 37 37" fill="none" xmlns="http://www.w3.org/2000/svg">
<g id="Apple Logo">
<path id="Vector" d="M26.8113 0C24.7195 0.107199 22.3181 1.13494 20.8904 2.44373C19.6005 3.63412 18.5828 5.40206 18.9982 7.11245C21.2714 7.16525 23.5531 6.11088 24.9192 4.77809C26.1945 3.5317 27.1615 1.79199 26.8113 0ZM26.9353 7.10932C23.6535 7.10932 22.2813 8.88743 20.0081 8.88743C17.6696 8.88743 15.5318 7.22182 12.7017 7.22182C8.85197 7.22342 3 10.3684 3 17.778C3 24.5187 9.92597 31.9998 13.8356 31.9998C16.2103 32.0206 16.7861 30.6829 20.0081 30.6685C23.2337 30.6477 23.9298 32.0174 26.3082 31.9998C28.9859 31.9822 31.0771 29.387 32.6047 27.331C33.7005 25.8591 34.151 25.1076 35 23.4436C28.6993 22.0356 27.4457 13.0746 35 11.2218C33.574 9.07621 29.4117 7.10932 26.9353 7.10932Z" fill="black"/>
</g>
</svg>
