<svg width="36" height="32" viewBox="0 0 36 32" fill="none" xmlns="http://www.w3.org/2000/svg">
<g id="1">
<g id="Clip path group">
<mask id="mask0_165_15" style="mask-type:luminance" maskUnits="userSpaceOnUse" x="1" y="6" width="12" height="20">
<g id="7c4f4d2fea">
<path id="Vector" d="M1.13379 6.93335H12.9121V25.0667H1.13379V6.93335Z" fill="white"/>
</g>
</mask>
<g mask="url(#mask0_165_15)">
<g id="Group">
<g id="Clip path group_2">
<mask id="mask1_165_15" style="mask-type:luminance" maskUnits="userSpaceOnUse" x="1" y="0" width="34" height="32">
<g id="71c43059f2">
<path id="Vector_2" d="M34.4444 13.212H18.3769V19.1334H27.6256C26.7633 22.8952 23.158 25.0548 18.3769 25.0548C12.7338 25.0548 8.18782 21.0143 8.18782 15.9985C8.18782 10.9827 12.7338 6.9422 18.3769 6.9422C20.8067 6.9422 23.0013 7.70853 24.7255 8.96245L29.7417 4.50403C26.685 2.13545 22.7661 0.672534 18.3769 0.672534C8.81482 0.672534 1.13379 7.49953 1.13379 15.9985C1.13379 24.4975 8.81482 31.3245 18.3769 31.3245C26.9985 31.3245 34.8363 25.7514 34.8363 15.9985C34.8363 15.0929 34.6795 14.1175 34.4444 13.212Z" fill="white"/>
</g>
</mask>
<g mask="url(#mask1_165_15)">
<g id="Group_2">
<path id="Vector_3" d="M-0.433594 25.0548V6.94219L12.8906 15.9984L-0.433594 25.0548Z" fill="#FBBC05"/>
</g>
</g>
</g>
</g>
</g>
</g>
<g id="Clip path group_3">
<mask id="mask2_165_15" style="mask-type:luminance" maskUnits="userSpaceOnUse" x="1" y="0" width="34" height="16">
<g id="1e7bcd73ea">
<path id="Vector_4" d="M1.13379 0.661318H34.8363V16H1.13379V0.661318Z" fill="white"/>
</g>
</mask>
<g mask="url(#mask2_165_15)">
<g id="Group_3">
<g id="Clip path group_4">
<mask id="mask3_165_15" style="mask-type:luminance" maskUnits="userSpaceOnUse" x="1" y="0" width="34" height="32">
<g id="106a7501b6">
<path id="Vector_5" d="M34.4444 13.2119H18.3769V19.1333H27.6256C26.7633 22.8952 23.158 25.0548 18.3769 25.0548C12.7338 25.0548 8.18782 21.0143 8.18782 15.9984C8.18782 10.9827 12.7338 6.94218 18.3769 6.94218C20.8067 6.94218 23.0013 7.70851 24.7255 8.96243L29.7417 4.50401C26.685 2.13543 22.7661 0.672512 18.3769 0.672512C8.81482 0.672512 1.13379 7.49951 1.13379 15.9984C1.13379 24.4974 8.81482 31.3244 18.3769 31.3244C26.9985 31.3244 34.8363 25.7513 34.8363 15.9984C34.8363 15.0928 34.6795 14.1175 34.4444 13.2119Z" fill="white"/>
</g>
</mask>
<g mask="url(#mask3_165_15)">
<g id="Group_4">
<path id="Vector_6" d="M-0.433594 6.94217L12.8906 15.9984L18.3771 11.749L37.1877 9.03208V-0.720834H-0.433594V6.94217Z" fill="#EA4335"/>
</g>
</g>
</g>
</g>
</g>
</g>
<g id="Clip path group_5">
<mask id="mask4_165_15" style="mask-type:luminance" maskUnits="userSpaceOnUse" x="1" y="0" width="34" height="32">
<g id="e20f06e835">
<path id="Vector_7" d="M1.13379 0.661318H34.8363V31.3244H1.13379V0.661318Z" fill="white"/>
</g>
</mask>
<g mask="url(#mask4_165_15)">
<g id="Group_5">
<g id="Clip path group_6">
<mask id="mask5_165_15" style="mask-type:luminance" maskUnits="userSpaceOnUse" x="1" y="0" width="34" height="32">
<g id="8ca6ea0984">
<path id="Vector_8" d="M34.4444 13.2119H18.3769V19.1333H27.6256C26.7633 22.8952 23.158 25.0548 18.3769 25.0548C12.7338 25.0548 8.18782 21.0143 8.18782 15.9984C8.18782 10.9827 12.7338 6.94218 18.3769 6.94218C20.8067 6.94218 23.0013 7.70851 24.7255 8.96243L29.7417 4.50401C26.685 2.13543 22.7661 0.672512 18.3769 0.672512C8.81482 0.672512 1.13379 7.49951 1.13379 15.9984C1.13379 24.4974 8.81482 31.3244 18.3769 31.3244C26.9985 31.3244 34.8363 25.7513 34.8363 15.9984C34.8363 15.0928 34.6795 14.1175 34.4444 13.2119Z" fill="white"/>
</g>
</mask>
<g mask="url(#mask5_165_15)">
<g id="Group_6">
<path id="Vector_9" d="M-0.433594 25.0547L23.0797 9.03208L29.2716 9.72875L37.1877 -0.720834V32.7177H-0.433594V25.0547Z" fill="#34A853"/>
</g>
</g>
</g>
</g>
</g>
</g>
<g id="Clip path group_7">
<mask id="mask6_165_15" style="mask-type:luminance" maskUnits="userSpaceOnUse" x="9" y="6" width="26" height="26">
<g id="084cc3978a">
<path id="Vector_10" d="M9.74414 6.93335H34.8363V31.3244H9.74414V6.93335Z" fill="white"/>
</g>
</mask>
<g mask="url(#mask6_165_15)">
<g id="Group_7">
<g id="Clip path group_8">
<mask id="mask7_165_15" style="mask-type:luminance" maskUnits="userSpaceOnUse" x="1" y="0" width="34" height="32">
<g id="402fdc6fec">
<path id="Vector_11" d="M34.4444 13.212H18.3769V19.1334H27.6256C26.7633 22.8952 23.158 25.0548 18.3769 25.0548C12.7338 25.0548 8.18782 21.0143 8.18782 15.9985C8.18782 10.9827 12.7338 6.9422 18.3769 6.9422C20.8067 6.9422 23.0013 7.70853 24.7255 8.96245L29.7417 4.50403C26.685 2.13545 22.7661 0.672534 18.3769 0.672534C8.81482 0.672534 1.13379 7.49953 1.13379 15.9985C1.13379 24.4975 8.81482 31.3245 18.3769 31.3245C26.9985 31.3245 34.8363 25.7514 34.8363 15.9985C34.8363 15.0929 34.6795 14.1175 34.4444 13.212Z" fill="white"/>
</g>
</mask>
<g mask="url(#mask7_165_15)">
<g id="Group_8">
<path id="Vector_12" d="M37.1876 32.7178L12.8905 15.9984L9.75537 13.9086L37.1876 6.94219V32.7178Z" fill="#4285F4"/>
</g>
</g>
</g>
</g>
</g>
</g>
</g>
</svg>
