<svg width="166" height="37" viewBox="0 0 166 37" fill="none" xmlns="http://www.w3.org/2000/svg">
<path id="Vector 2" d="M-37.5304 35C-41.7087 34.6374 -44.4084 28.4679 -45.4228 26.9712C-47.6394 23.7005 -43.0502 19.4553 -38.8152 16.6484C-32.8453 12.6917 -14.4684 10.9135 -2.93253 10.9135C27.0277 10.9135 21.7526 25.642 45.4311 27.9907C54.2359 28.8641 67.4325 26.3422 73.5132 24.2312C79.1712 22.2669 78.1018 20.4605 78.1018 17.7954C78.1018 14.0198 69.9521 4.9679 81.4973 2.62979C86.9237 1.53086 99.5334 2.16721 105.358 2.34305C113.642 2.59313 121.015 3.44095 127.567 5.14677C136.978 7.59718 164 11.0446 164 16.0749" stroke="#51524A" stroke-width="3" stroke-linecap="round"/>
</svg>
